<?xml version="1.0" encoding="UTF-8"?>
<svg version="1.1" xmlns="http://www.w3.org/2000/svg" width="50" height="50">
<path d="M0 0 C5.14338337 2.9958329 8.76038445 7.90615335 10.625 13.5 C11.28606953 20.81511362 11.39339707 27.56922358 6.625 33.5 C0.28297679 39.3315988 -4.73061574 40.88324877 -13.30078125 40.76953125 C-18.76770435 40.29022033 -22.4406983 38.60360601 -26.16015625 34.55859375 C-31.45356581 27.76350772 -32.12237123 22.02436466 -31.375 13.5 C-29.62831073 6.79137816 -25.19768102 2.95534869 -19.375 -0.5 C-13.29956434 -2.52514522 -5.92264469 -2.60046489 0 0 Z " fill="#1FA1E3" transform="translate(35.375,5.5)"/>
<path d="M0 0 C-0.43632909 6.88940671 -1.08389845 13.35751464 -3 20 C-6.59391114 18.66511872 -9.75490696 17.03977277 -13 15 C-12.45773019 11.20411134 -10.79872437 9.52788007 -8 7 C-8.49628906 7.37253906 -8.99257813 7.74507812 -9.50390625 8.12890625 C-15.74340108 12.4740573 -15.74340108 12.4740573 -20 11.8125 C-20.99 11.544375 -21.98 11.27625 -23 11 C-22 8 -22 8 -20.18994141 6.92504883 C-19.41827637 6.60560303 -18.64661133 6.28615723 -17.8515625 5.95703125 C-17.01109375 5.60576172 -16.170625 5.25449219 -15.3046875 4.89257812 C-13.97824219 4.35793945 -13.97824219 4.35793945 -12.625 3.8125 C-11.7484375 3.44447266 -10.871875 3.07644531 -9.96875 2.69726562 C-3.42325197 0 -3.42325197 0 0 0 Z " fill="#F3F9FC" transform="translate(34,16)"/>
<path d="M0 0 C0 0.99 0 1.98 0 3 C-1.63260714 4.37482707 -3.30225062 5.70647667 -5 7 C-5.66 7.99 -6.32 8.98 -7 10 C-7.33 8.68 -7.66 7.36 -8 6 C-5.36 4.02 -2.72 2.04 0 0 Z " fill="#3AA3D8" transform="translate(27,21)"/>
</svg>
